# xmcd
#
# Track frame offsets:
#	150
#	14748
#	32521
#	50936
#	64076
#	81058
#	96143
#	113928
#	126291
#	145706
#	160631
#
# Disc length: 2348 seconds
#
# Revision: 0
# Processed by: cddbd v1.5.1PL0 Copyright (c) Steve Scherf et al.
# Submitted via: dBpowerAMP V4.0
#
DISCID=92092a0b
DTITLE=Lorrie Morgan - Shakin' Things Up
DYEAR=1997
DGENRE=Country
TTITLE0=Shakin' Things Up
TTITLE1=One Of Those Nights Tonight
TTITLE2=You Can't Take That
TTITLE3=Go Away
TTITLE4=Crazy From The Heat
TTITLE5=I'm Not That Easy To Forget
TTITLE6=I've Enjoyed As Much Of This As I Can Stand
TTITLE7=Finishing Touch
TTITLE8=You'd Think He'd Know Me Better
TTITLE9=Will You Still Love Me Tomorrow
TTITLE10=In A Perfect World
EXTD=
EXTT0=
EXTT1=
EXTT2=
EXTT3=
EXTT4=
EXTT5=
EXTT6=
EXTT7=
EXTT8=
EXTT9=
EXTT10=
PLAYORDER=
